<svg xmlns="http://www.w3.org/2000/svg" width="980" height="230" viewBox="0 0 980 230">
  <rect width="980" height="230" fill="#f7f5ef"/>
  <style>
    .card{fill:#fff;stroke:#dedbd3;stroke-width:1}
    .label{font-family:Arial,Helvetica,sans-serif;font-size:18px;font-weight:800;fill:#191a19}
    .sub{font-family:Arial,Helvetica,sans-serif;font-size:12px;font-weight:700;fill:#697789;letter-spacing:1.5px}
  </style>
  <g transform="translate(28 24)">
    <rect class="card" width="170" height="180" rx="20"/>
    <g transform="translate(48 29) scale(1.55)">
      <svg viewBox="0 0 48 48" width="48" height="48" fill="none" stroke="#191A19" stroke-width="2" stroke-linejoin="round" stroke-linecap="round">
        <path d="M10 12h28L24 29z" fill="#C7F3E8"/>
        <path d="M24 29v9M16 40h16"/>
        <circle cx="30" cy="18" r="3" fill="#FFC53D" stroke-width="1.4"/>
        <path d="M14 17h20" stroke="#00C897" stroke-width="1.8"/>
      </svg>
    </g>
    <text class="label" x="85" y="135" text-anchor="middle">Happy hours</text>
  </g>
  <g transform="translate(218 24)">
    <rect class="card" width="170" height="180" rx="20"/>
    <g transform="translate(48 29) scale(1.55)">
      <svg viewBox="0 0 48 48" width="48" height="48" fill="none" stroke="#191A19" stroke-width="2" stroke-linejoin="round" stroke-linecap="round">
        <path d="M24 9v6" stroke-width="1.5"/>
        <rect x="20" y="5" width="8" height="6" rx="1.5" fill="#FFE3A0"/>
        <circle cx="24" cy="28" r="14" fill="#D8D4F5"/>
        <path d="M10 28h28M13 20h22M13 36h22" stroke-width="1.5"/>
        <path d="M24 14c4.2 4.5 6.4 9 6.4 14S28.2 37.5 24 42M24 14c-4.2 4.5-6.4 9-6.4 14S19.8 37.5 24 42" stroke-width="1.5"/>
      </svg>
    </g>
    <text class="label" x="85" y="135" text-anchor="middle">Nightlife</text>
  </g>
  <g transform="translate(408 24)">
    <rect class="card" width="170" height="180" rx="20"/>
    <g transform="translate(48 29) scale(1.55)">
      <svg viewBox="0 0 48 48" width="48" height="48" fill="none" stroke="#191A19" stroke-width="2" stroke-linejoin="round" stroke-linecap="round">
        <path d="M10 15h28a3 3 0 0 1 3 3v4a4 4 0 0 0 0 8v4a3 3 0 0 1-3 3H10a3 3 0 0 1-3-3v-4a4 4 0 0 0 0-8v-4a3 3 0 0 1 3-3z" fill="#FFE3A0"/>
        <path d="M17 15v22M31 15v22" stroke-width="1.5"/>
        <path d="M21 23h6M21 29h6" stroke-width="1.8"/>
      </svg>
    </g>
    <text class="label" x="85" y="135" text-anchor="middle">Concerts</text>
  </g>
  <g transform="translate(598 24)">
    <rect class="card" width="170" height="180" rx="20"/>
    <g transform="translate(48 29) scale(1.55)">
      <svg viewBox="0 0 48 48" width="48" height="48" fill="none" stroke="#191A19" stroke-width="2" stroke-linejoin="round" stroke-linecap="round">
        <circle cx="24" cy="24" r="16" fill="#C7F3E8"/>
        <path d="M24 12v24" stroke="#00A878" stroke-width="2.8"/>
        <path d="M31 17.5c-2-2.1-12-2.5-12 2.7 0 5.8 12 2.9 12 8.5 0 5.1-9.8 4.9-13 2" stroke="#00A878" stroke-width="2.8"/>
        <path d="M13 36 36 13" stroke="#E53935" stroke-width="4"/>
      </svg>
    </g>
    <text class="label" x="85" y="135" text-anchor="middle">Free events</text>
  </g>
  <g transform="translate(788 24)">
    <rect class="card" width="170" height="180" rx="20"/>
    <g transform="translate(48 29) scale(1.55)">
      <svg viewBox="0 0 48 48" width="48" height="48" fill="none" stroke="#191A19" stroke-width="2" stroke-linejoin="round" stroke-linecap="round">
        <circle cx="16" cy="18" r="8.5" fill="#FFC53D"/>
        <path d="M7.5 18h17M16 9.5v17" stroke-width="1.25"/>
        <path d="M10.5 11.8c3.1 3.4 3.1 9 0 12.4M21.5 11.8c-3.1 3.4-3.1 9 0 12.4" stroke-width="1.15"/>
        <circle cx="30.5" cy="18" r="8.5" fill="#F7FAFC"/>
        <path d="m30.5 12.3 4.1 3-1.6 4.8h-5l-1.6-4.8z" fill="#C7F3E8" stroke-width="1.1"/>
        <path d="M26.4 15.3 23.6 14M34.6 15.3l2.8-1.3M33 20.1l2 3M28 20.1l-2 3" stroke-width="1"/>
        <circle cx="17" cy="31.5" r="8.5" fill="#F7FAFC"/>
        <path d="M12.2 25.4c3 3.8 3 8.4 0 12.2M21.8 25.4c-3 3.8-3 8.4 0 12.2" stroke="#E85D45" stroke-width="1.55"/>
        <path d="M25 32.5C30 22.5 42 24 44 32.5C40 42.5 28 41 25 32.5Z" fill="#C7824A"/>
        <path d="M28.8 32.6h10.7M34.1 29.5v6.2M31.9 30.5v4.2M36.3 30.5v4.2" stroke="#F7FAFC" stroke-width="1.55"/>
      </svg>
    </g>
    <text class="label" x="85" y="135" text-anchor="middle">Sports</text>
  </g>
</svg>
